<?xml version="1.0" encoding="utf-8"?>
<!-- Generator: Adobe Illustrator 21.1.0, SVG Export Plug-In . SVG Version: 6.00 Build 0)  -->
<svg version="1.1" id="Capa_1" xmlns="http://www.w3.org/2000/svg" xmlns:xlink="http://www.w3.org/1999/xlink" x="0px" y="0px"
	 width="512px" height="512px" viewBox="0 0 512 512" style="enable-background:new 0 0 512 512;" xml:space="preserve">
<style type="text/css">
	.st0{fill:#D0D0D0;}
</style>
<g>
	<g>
		<path class="st0" d="M493.7,0H18.3C8.2,0,0,8.2,0,18.3v475.4C0,503.8,8.2,512,18.3,512h475.4c10.1,0,18.3-8.2,18.3-18.3V18.3
			C512,8.2,503.8,0,493.7,0z M232.4,305.5L232.4,305.5l-96.8,96.8h29c10.1,0,18.3,8.2,18.3,18.3s-8.2,18.3-18.3,18.3H91.4
			c-10.1,0-18.3-8.2-18.3-18.3v-73.1c0-10.1,8.2-18.3,18.3-18.3s18.3,8.2,18.3,18.3v29l96.8-96.8c7.3-7,18.8-6.8,25.9,0.4
			C239.2,287.2,239.2,298.4,232.4,305.5z M232.4,232.4c-7.1,7.1-18.7,7.1-25.9,0l-96.8-96.8v29c0,10.1-8.2,18.3-18.3,18.3
			s-18.3-8.2-18.3-18.3V91.4c0-10.1,8.2-18.3,18.3-18.3h73.1c10.1,0,18.3,8.2,18.3,18.3s-8.2,18.3-18.3,18.3h-29l96.8,96.8
			C239.5,213.6,239.5,225.2,232.4,232.4z M438.9,420.6c0,10.1-8.2,18.3-18.3,18.3h-73.1c-10.1,0-18.3-8.2-18.3-18.3
			s8.2-18.3,18.3-18.3h29l-96.8-96.8c-7-7.3-6.8-18.8,0.5-25.9c7.1-6.8,18.3-6.8,25.4,0l96.8,96.8v-29c0-10.1,8.2-18.3,18.3-18.3
			s18.3,8.2,18.3,18.3L438.9,420.6L438.9,420.6z M438.9,164.6c0,10.1-8.2,18.3-18.3,18.3s-18.3-8.2-18.3-18.3v-29l-96.8,96.8
			c-7.3,7-18.8,6.8-25.9-0.4c-6.8-7.1-6.8-18.3,0-25.4l96.8-96.8h-29c-10.1,0-18.3-8.2-18.3-18.3s8.2-18.3,18.3-18.3h73.1
			c10.1,0,18.3,8.2,18.3,18.3L438.9,164.6L438.9,164.6z"/>
	</g>
</g>
</svg>
